<svg width="200" height="200" viewBox="0 0 200 200" xmlns="http://www.w3.org/2000/svg" class="img-logo"><title>logo MAYAMI developpement web genève</title><defs><radialGradient cy="28%" fx="50%" fy="28%" r="54%" id="a"><stop stop-color="#FF6023" offset="0%"/><stop stop-color="#DA305D" offset="100%"/></radialGradient></defs><g fill="none" fill-rule="evenodd"><circle fill="url(#a)" cx="100" cy="100" r="100"/><path d="M161.58 180.06c-6.46-21.35-16.12-46.46-28.66-67.54-17-28.6-29.23-42.55-29.23-42.55s5.72-1.5 15.32-1.12c9.6.37 27.17 2.75 27.17 2.75s-1.44-9.02-20.1-18.45c-12.33-6.24-24.88-5.24-24.88-5.24s4.2-5.3 11.17-10.2c6.96-4.9 15.78-8.7 15.78-8.7s-10.75-4.6-28.38 0c-13.1 3.42-21.52 17.64-21.52 17.64s-14.7-2.7-25.3 1.27C38.94 53.2 39.6 61 39.6 61s5.08-1.27 12.43-1.74c6.2-.4 13.8.47 13.8.47s-9.35 6.96-14.84 16.3C42 91.2 47.33 100 47.33 100s4.48-8.14 16.7-18.3C76.22 71.57 81.94 71.6 81.94 71.6s-2.04 9.93-1.1 16.45c1.68 11.35 6.07 14.93 6.07 14.93s.5-7.66 3.2-14.56c2.66-6.9 7.24-12.38 7.24-12.38s7.78 11.2 16.68 26.94c19.27 34.07 25.07 60.75 30.2 87.86 6.16-3 11.96-6.62 17.34-10.76z" fill="#FFF"/></g></svg>
