<svg width="200" height="200" viewBox="0 0 200 200" xmlns="http://www.w3.org/2000/svg"><title>mayami-logo</title><defs><radialGradient cy="28%" fx="50%" fy="28%" r="54%" id="a"><stop stop-color="#FF6023" offset="0%"/><stop stop-color="#DA305D" offset="100%"/></radialGradient></defs><g fill="none" fill-rule="evenodd"><circle fill="url(#a)" cx="100" cy="100" r="100"/><path d="M159.72 181.08c-5.3-15.5-14.4-41.15-24.82-66-16.5-39.32-27.16-54.84-27.16-54.84s5.82-1.08 15.37-.04c9.57 1.03 26.92 4.63 26.92 4.63s-.8-9.1-18.74-19.8c-11.88-7.1-24.47-6.97-24.47-6.97s6.23-5.18 13.54-9.58c7.3-4.4 14.7-7.4 14.7-7.4s-10.4-5.32-28.33-1.97c-13.28 2.5-24.6 14.3-24.6 14.3s-13.64-1.36-24.44 2.12C43.08 40.22 40 47.7 40 47.7l30.66-.3s-13.9 11.14-20.03 20.07c-10 14.53-7 23.3-7 23.3S57.42 79.6 70.3 70.3c12.9-9.27 15.64-10 15.64-10S83.2 70.1 83.7 76.68c.88 11.43 5 15.3 5 15.3s1.86-7.97 4.13-12.9c2.26-4.9 6.5-13.54 6.5-13.54s15.16 19.03 29.5 60.13c6.95 19.88 12.78 45.6 16.5 63.94 5.04-2.44 9.86-5.3 14.4-8.52z" fill="#FFF"/></g></svg>
