<svg width="200" height="200" viewBox="0 0 200 200" xmlns="http://www.w3.org/2000/svg"><title>avatar-ya</title><g fill="none" fill-rule="evenodd"><path d="M55.9 104.77l-5.82.16-.28-5.87c0-.08 0-.22-.02-.42 0-.34-.03-.73-.05-1.18l-.15-4.22c-.18-5.87-.26-11.84-.2-17.43l.02-.4 5.95.1-5.95.1c-.14-6.62.17-12.4 1.05-17.1l.05-.26.08-.26c2.3-8.1 5.35-13.93 9.4-18.67 1.05-1.2 2.12-2.32 3.37-3.5.7-.66 2.86-2.64 2.85-2.63 6.74-6.26 20.7-10.48 34.62-10.47 13.76 0 26.9 4.14 33.7 10.47l.75.67c4.27 3.88 5.8 5.46 8.13 9.02 2.54 3.86 4.73 8.68 6.7 14.95l.12.36.06.35c.88 4.7 1.2 10.48 1.06 17.1l-5.95-.1 5.94-.1v.4c.07 5.6 0 11.57-.2 17.44-.04 1.54-.1 2.96-.14 4.22l-.05 1.18c0 .2 0 .34-.02.42l-.28 5.87-5.83-.16-44.62-1.23h.33l-44.62 1.23z" fill="#ED473F"/><path d="M55.8 98.78l44.57-1.24 44.57 1.24s.56-11.7.4-23.3c.1-5.53-.1-11.25-.95-15.85-4.57-14.5-9.5-17.93-13.93-22.05-5.2-4.83-16.53-8.88-29.66-8.88-13.12 0-25.33 4.05-30.54 8.88C65.83 41.7 60.2 46 56.36 59.63c-.88 4.6-1.08 10.32-.96 15.86-.16 11.57.4 23.28.4 23.28z" fill="#FAD8D7"/><path d="M52 134c-9.34 0-17-11.38-17-22 0-10.74 5.16-15 16-15 7.7 0 12.24 1.03 15.05 4.32 1.67 1.96 2.27 4.26 2.13 6.72-.04.78-.15 1.53-.32 2.38l-.2.97-.22.85c-.32 1.4-.44 2.1-.44 2.75 0 10.02-5.78 19-15 19z" fill="#ED473F"/><path d="M52 128c5.52 0 9-6.37 9-13s6.3-12-10-12c-7.3 0-10 1.48-10 9s5.48 16 11 16z" fill="#FFF"/><path d="M49.58 110.58c-.48.18-1.13.55-1.8 1.13-1.12 1-1.82 2.28-1.84 3.85 0 1.6.67 2.88 1.8 3.84.63.54 1.27.88 1.74 1.05.52.2 1.1-.08 1.28-.6.2-.52-.08-1.1-.6-1.28l-.32-.15c-.28-.15-.55-.33-.8-.55-.7-.6-1.1-1.35-1.1-2.3 0-.95.43-1.72 1.16-2.36.27-.22.56-.42.85-.58.17-.1.3-.15.35-.18.52-.2.77-.77.57-1.3-.2-.5-.78-.76-1.3-.56z" fill="#ED473F"/><path d="M51.35 110.14c-.2-.34-.58-.8-1.1-1.24-.94-.78-2.04-1.25-3.3-1.23-1.23 0-2.3.45-3.18 1.15-.54.43-.9.86-1.1 1.18-.3.47-.17 1.1.3 1.4.46.28 1.07.15 1.37-.32.1-.15.33-.42.67-.7.57-.44 1.22-.7 1.97-.7.74-.02 1.4.26 1.98.75.36.3.6.6.7.77.3.46.9.6 1.38.3.47-.28.6-.9.32-1.36z" fill="#ED473F"/><g><path d="M149 134c9.34 0 17-11.38 17-22 0-10.74-5.16-15-16-15-7.7 0-12.24 1.03-15.05 4.32-1.67 1.96-2.27 4.26-2.13 6.72.04.78.15 1.53.32 2.38l.2.97.22.85c.32 1.4.44 2.1.44 2.75 0 10.02 5.78 19 15 19z" fill="#ED473F"/><path d="M149 128c-5.52 0-9-6.37-9-13s-6.3-12 10-12c7.3 0 10 1.48 10 9s-5.48 16-11 16z" fill="#FFF"/><path d="M151.42 110.58c.48.18 1.13.55 1.8 1.13 1.12 1 1.82 2.28 1.84 3.85 0 1.6-.67 2.88-1.8 3.84-.63.54-1.27.88-1.74 1.05-.52.2-1.1-.08-1.28-.6-.2-.52.08-1.1.6-1.28l.32-.15c.28-.15.55-.33.8-.55.7-.6 1.1-1.35 1.1-2.3 0-.95-.43-1.72-1.16-2.36-.27-.22-.56-.42-.85-.58-.17-.1-.3-.15-.35-.18-.52-.2-.77-.77-.57-1.3.2-.5.78-.76 1.3-.56z" fill="#ED473F"/><path d="M149.65 110.14c.2-.34.58-.8 1.1-1.24.94-.78 2.04-1.25 3.3-1.23 1.23 0 2.3.45 3.18 1.15.54.43.9.86 1.1 1.18.3.47.17 1.1-.3 1.4-.46.28-1.07.15-1.37-.32-.1-.15-.33-.42-.67-.7-.57-.44-1.22-.7-1.97-.7-.74-.02-1.4.26-1.98.75-.36.3-.6.6-.7.77-.3.46-.9.6-1.38.3-.47-.28-.6-.9-.32-1.36z" fill="#ED473F"/></g><g transform="translate(50 47)"><path d="M50.45 126c28.5 0 44.45-27.1 44.45-60.5S94.9 5 50.45 5 6 32.1 6 65.5 21.94 126 50.45 126z" fill="#FFF"/><path d="M95.6 17.13c3.05 12.84 5.3 31.6 5.3 48.37 0 39.1-18.43 66.5-50.45 66.5S0 104.6 0 65.5C0 48.67 2.47 28.03 5.35 17c1.6-6.13 9.68-13.3 17.92-15.76C25.8.48 27.9.18 30.12.24c1.1.04 2.16.16 3.6.38-.1 0 2.65.43 3.56.56 3.7.53 7.67.82 13.18.82 5.04 0 8.97-.22 13.2-.65.3-.03 4.38-.47 5.44-.56 2-.18 3.6-.2 5.23-.06 2.08.2 4.08.67 6.27 1.5 7.35 2.8 13.47 8.54 15 14.9z" fill="#ED473F"/><path d="M89.75 18.52c-1-4.2-5.68-8.55-11.28-10.67-7.37-2.8-10 .15-28 .15C32.44 8 32.16 4.83 25 7c-7 2.1-12.95 8.08-13.85 11.52C8.85 27.37 6 47.2 6 65.5 6 98.9 20.5 126 50.45 126 80.4 126 94.9 98.9 94.9 65.5c0-18.3-2.68-36.63-5.15-46.98z" fill="#FFF"/><path d="M94.34 77.8C91.67 105.32 79.3 126 50.44 126c-28.9 0-41.26-20.76-43.9-48.35 3.34 4.6 6.3 8.66 9.07 12.22 1.96 2.85 3.88 5.33 5.82 7.27C27.26 110.9 38.02 110 50.5 110c12.5 0 23.24.9 29.08-12.86 1.94-1.94 3.86-4.42 5.8-7.27 2.75-3.52 5.67-7.53 8.96-12.07z" fill="#FAD8D7"/><rect fill="#ED473F" x="25" y="48" width="6" height="10" rx="3"/><rect fill="#ED473F" x="70" y="48" width="6" height="10" rx="3"/><path d="M41.6 78.65c.6.32 1.6.76 2.88 1.2 2.14.7 4.38 1.15 6.64 1.15 2.27 0 4.47-.44 6.56-1.17 1.25-.44 2.2-.9 2.8-1.22 1.44-.8 1.95-2.63 1.13-4.07-.8-1.45-2.63-1.96-4.07-1.14-.05 0-.2.1-.42.2-.4.2-.88.38-1.4.57-1.5.52-3.05.83-4.58.83-1.54 0-3.16-.3-4.73-.84-.57-.2-1.08-.4-1.52-.6l-.48-.2c-1.46-.8-3.28-.23-4.05 1.24-.78 1.46-.22 3.28 1.25 4.05zM36.4 101.54c.78.5 2.1 1.15 3.9 1.8 2.94 1.03 6.23 1.66 9.8 1.66 3.56 0 6.82-.63 9.7-1.68 1.8-.65 3.08-1.3 3.84-1.8 1.4-.9 1.78-2.77.87-4.16-.9-1.4-2.75-1.78-4.14-.87 0-.02-.03 0-.1.04-.12.08-.28.16-.47.26-.58.3-1.26.6-2.04.88C55.5 98.5 52.92 99 50.1 99c-2.84 0-5.46-.5-7.8-1.33-.8-.28-1.5-.6-2.1-.88-.2-.1-.37-.2-.5-.28l-.1-.06c-1.4-.88-3.26-.46-4.14.95-.88 1.4-.46 3.26.95 4.14zM41.24 34.53c-.67-.22-1.8-.5-3.34-.8-2.5-.46-5.27-.73-8.28-.73-3.63 0-7.24.63-10.7 1.67-2.08.63-3.68 1.26-4.64 1.72-2 .94-2.84 3.32-1.9 5.32.96 2 3.34 2.84 5.34 1.9.12-.07.4-.2.86-.37.78-.3 1.67-.63 2.64-.92C24 41.5 26.86 41 29.62 41c2.5 0 4.8.23 6.83.6.7.13 1.3.26 1.8.4.3.07.46.12.5.14 2.1.68 4.37-.46 5.05-2.56.7-2.1-.46-4.36-2.56-5.05zM61.2 42.15l.54-.14c.53-.13 1.17-.27 1.9-.4 2.13-.37 4.54-.6 7.17-.6 2.93 0 5.94.5 8.85 1.34 1.02.3 1.96.6 2.77.93.48.18.8.3.92.37 2 .92 4.38.03 5.3-1.98.92-2 .03-4.38-1.98-5.3-1-.45-2.64-1.08-4.8-1.7C78.3 33.62 74.57 33 70.82 33c-3.1 0-5.98.27-8.55.73-1.6.28-2.76.57-3.45.8-2.1.65-3.28 2.9-2.62 5 .67 2.1 2.9 3.28 5.02 2.62zM45.3 66.95l.5-.14c.4-.1.86-.22 1.34-.32 1.26-.28 2.5-.45 3.65-.48h.3c1.23 0 2.54.18 3.85.48.46.1.9.2 1.27.32l.45.15c.53.18 1.1-.1 1.28-.62.18-.53-.1-1.1-.62-1.28l-.55-.17c-.42-.12-.88-.24-1.4-.36-1.43-.32-2.9-.52-4.28-.52h-.36c-1.3.04-2.65.23-4.02.52-.53.12-1 .24-1.45.36l-.58.17c-.53.17-.82.73-.65 1.26.17.53.73.82 1.26.65zM46.5 116.87c.16-.1.5-.26 1-.42.8-.28 1.68-.45 2.58-.45.9 0 1.73.17 2.5.44.44.16.75.32.9.4.46.3 1.07.16 1.37-.3.3-.48.15-1.1-.32-1.4-.26-.15-.7-.37-1.28-.58-.96-.35-2.03-.56-3.17-.56-1.14 0-2.23.2-3.24.55-.6.2-1.06.43-1.34.58-.48.28-.64.9-.37 1.37.28.48.9.64 1.37.37z" fill="#ED473F"/></g><path d="M100.38 131c7.97 0 13.36.32 17.83 1.9 6.6 2.3 9.9 9.37 1.77 8.1-7.56-1.18-19.45-1-19.6-1-.13 0-12.02-.18-19.58 1-8.13 1.27-4.83-5.8 1.75-8.1 4.47-1.58 9.86-1.9 17.83-1.9z" fill="#FBDAD9"/></g></svg>