<svg width="200" height="200" viewBox="0 0 200 200" xmlns="http://www.w3.org/2000/svg"><title>avatar-mi</title><g fill="none" fill-rule="evenodd"><path d="M100.6 106.54h.34l-44.97 1.23-6.1.17-.06-6.12v-.47c0-2.2 0-5.08.06-8.38.07-4.94.22-9.82.46-14.4l.06-1.03v.22c.12-7.06 1.54-14.95 3.6-21.45 3.88-12.5 6.5-16.8 13.45-23.37 6.9-6.58 18.56-10.24 33.8-10.23 15.08 0 25.92 3.56 32.9 10.2 6.95 6.6 9.58 10.9 13.45 23.4 2.06 6.5 3.48 14.4 3.6 21.47v-.23l.06 1.04c.23 4.55.38 9.4.45 14.32.04 3.3.05 6.2.04 8.4v.53l-.05 6.1-6.12-.16-44.97-1.23z" fill="#DA2B59"/><path d="M100.77 100.54l44.97 1.24s.1-12.14-.55-23.9c-.14-7.2-1.73-14.7-3.34-19.78-4-12.93-6.64-15.9-11.86-20.83-5.06-4.83-13.8-8.57-28.78-8.57s-24.58 3.74-29.64 8.57c-5.22 4.94-7.86 7.9-11.88 20.83-1.6 5.1-3.2 12.57-3.33 19.77-.66 11.77-.56 23.9-.56 23.9l44.97-1.23z" fill="#F8D5DE"/><path d="M52 133c-9.34 0-17-11.38-17-22 0-10.74 5.16-15 16-15 7.7 0 12.24 1.03 15.05 4.32 1.67 1.96 2.27 4.26 2.13 6.72-.04.78-.15 1.53-.32 2.38l-.2.97-.22.85c-.32 1.4-.44 2.1-.44 2.75 0 10.02-5.78 19-15 19z" fill="#DA2B59"/><path d="M52 127c5.52 0 9-6.37 9-13s6.3-12-10-12c-7.3 0-10 1.48-10 9s5.48 16 11 16z" fill="#FFF"/><path d="M49.58 109.58c-.48.18-1.13.55-1.8 1.13-1.12 1-1.82 2.28-1.84 3.85 0 1.6.67 2.88 1.8 3.84.63.54 1.27.88 1.74 1.05.52.2 1.1-.08 1.28-.6.2-.52-.08-1.1-.6-1.28l-.32-.15c-.28-.15-.55-.33-.8-.55-.7-.6-1.1-1.35-1.1-2.3 0-.95.43-1.72 1.16-2.36.27-.22.56-.42.85-.58.17-.1.3-.15.35-.18.52-.2.77-.77.57-1.3-.2-.5-.78-.76-1.3-.56z" fill="#DA2B59"/><path d="M51.35 109.14c-.2-.34-.58-.8-1.1-1.24-.94-.78-2.04-1.25-3.3-1.23-1.23 0-2.3.45-3.18 1.15-.54.43-.9.86-1.1 1.18-.3.47-.17 1.1.3 1.4.46.28 1.07.15 1.37-.32.1-.15.33-.42.67-.7.57-.44 1.22-.7 1.97-.7.74-.02 1.4.26 1.98.75.36.3.6.6.7.77.3.46.9.6 1.38.3.47-.28.6-.9.32-1.36zM149 133c9.34 0 17-11.38 17-22 0-10.74-5.16-15-16-15-7.7 0-12.24 1.03-15.05 4.32-1.67 1.96-2.27 4.26-2.13 6.72.04.78.15 1.53.32 2.38l.2.97.22.85c.32 1.4.44 2.1.44 2.75 0 10.02 5.78 19 15 19z" fill="#DA2B59"/><path d="M149 127c-5.52 0-9-6.37-9-13s-6.3-12 10-12c7.3 0 10 1.48 10 9s-5.48 16-11 16z" fill="#FFF"/><path d="M151.42 109.58c.48.18 1.13.55 1.8 1.13 1.12 1 1.82 2.28 1.84 3.85 0 1.6-.67 2.88-1.8 3.84-.63.54-1.27.88-1.74 1.05-.52.2-1.1-.08-1.28-.6-.2-.52.08-1.1.6-1.28l.32-.15c.28-.15.55-.33.8-.55.7-.6 1.1-1.35 1.1-2.3 0-.95-.43-1.72-1.16-2.36-.27-.22-.56-.42-.85-.58-.17-.1-.3-.15-.35-.18-.52-.2-.77-.77-.57-1.3.2-.5.78-.76 1.3-.56z" fill="#DA2B59"/><path d="M149.65 109.14c.2-.34.58-.8 1.1-1.24.94-.78 2.04-1.25 3.3-1.23 1.23 0 2.3.45 3.18 1.15.54.43.9.86 1.1 1.18.3.47.17 1.1-.3 1.4-.46.28-1.07.15-1.37-.32-.1-.15-.33-.42-.67-.7-.57-.44-1.22-.7-1.97-.7-.74-.02-1.4.26-1.98.75-.36.3-.6.6-.7.77-.3.46-.9.6-1.38.3-.47-.28-.6-.9-.32-1.36z" fill="#DA2B59"/><g transform="translate(50 43)"><path d="M50.45 135C20.1 135 0 106.32 0 68.5 0 40.76 3.2 18.32 11.63 8.14c1.76-2.12 3.55-3.75 5.5-4.93C20.26 1.3 23.56.63 27.38.9c1.38.1 2.8.32 4.63.68.84.16 4 .82 4.67.96C41.63 3.52 45.6 4 50.45 4c4.35 0 8.15-.45 13.5-1.42C74.37.68 75.42.54 79.47 1.28c5.97 1.06 10.35 4.92 13.7 11.83 5.9 12.18 7.6 25.1 7.73 46.4v9c0 37.82-20.1 66.5-50.45 66.5z" fill="#DA2B59"/><path d="M50.45 129c27.5 0 44.45-27.1 44.45-60.5 0-18.3.37-37.28-7.13-52.78S70.57 10 50.45 10c-19.97 0-25.7-8.28-34.2 1.97C7.75 22.22 6 50.1 6 68.5 6 101.9 22.94 129 50.45 129z" fill="#FFF"/><path d="M6.25 75.44C11.52 92.14 32.52 92 50.5 92c17.84 0 38.65.13 44.12-16.17C92.32 105.8 75.92 129 50.45 129c-25.57 0-42.02-23.4-44.2-53.56z" fill="#F8D5DE"/><rect fill="#DA2B59" x="25" y="50" width="6" height="10" rx="3"/><rect fill="#DA2B59" x="70" y="50" width="6" height="10" rx="3"/><path d="M50.5 122c12.98 0 23.5-9.15 23.5-15.5s-1.77-6.5-23.5-6.5-23.5.15-23.5 6.5S37.52 122 50.5 122z" fill="#FFF"/><path d="M39.98 85.28c.67.3 1.78.72 3.23 1.13 2.42.7 4.93 1.1 7.44 1.1 2.5 0 4.98-.4 7.32-1.1 1.4-.42 2.48-.84 3.1-1.14 1.26-.6 1.8-2.1 1.2-3.33-.6-1.25-2.1-1.78-3.33-1.2-.08.05-.28.14-.6.26-.5.2-1.12.4-1.8.6-1.9.56-3.9.9-5.9.9-2 0-4.06-.34-6.06-.9-.7-.2-1.35-.42-1.9-.63-.34-.12-.56-.2-.65-.25-1.26-.57-2.74 0-3.3 1.26-.57 1.26 0 2.74 1.26 3.3zM35.58 108.64c.86.47 2.36 1.1 4.4 1.73 3.35 1.02 7.08 1.63 11.13 1.63 4.05 0 7.76-.6 11.04-1.64 2.02-.62 3.48-1.27 4.32-1.74 1.45-.8 1.97-2.64 1.16-4.08-.8-1.45-2.64-1.97-4.08-1.16l-.72.34c-.7.3-1.52.62-2.46.92-2.73.85-5.84 1.36-9.25 1.36-3.4 0-6.56-.5-9.37-1.37-.97-.3-1.82-.6-2.54-.92-.42-.16-.68-.3-.78-.34-1.46-.8-3.28-.24-4.06 1.22-.8 1.46-.24 3.28 1.22 4.06zM45.36 74.93l.4-.14c.33-.12.7-.23 1.1-.33 1.03-.27 2.04-.44 2.97-.47h.25c1 0 2.07.17 3.13.46.4.1.74.22 1.05.33l.37.12c.5.22 1.1-.03 1.3-.54.22-.5-.03-1.1-.54-1.3-.34-.14-.9-.35-1.64-.54-1.23-.34-2.47-.54-3.66-.54h-.3c-1.1.04-2.26.23-3.42.53-.45.12-.86.24-1.23.36l-.5.17c-.5.2-.76.77-.56 1.3.2.5.77.76 1.3.56zM22.9 67.13c.15.02.44.05.84.07 1.72.12 3.56.1 5.3-.12.28-.03.55-.08.82-.12 1.18-.2 2.4-.55 3.6-1 .72-.25 1.4-.53 2-.8l.8-.4c.5-.25.68-.86.43-1.34-.27-.5-.87-.68-1.36-.43l-.7.33c-.57.26-1.2.52-1.86.76-1.1.4-2.22.7-3.27.9l-.7.1c-1.6.2-3.33.22-4.93.1l-.76-.06c-.54-.06-1.03.33-1.1.88-.06.55.34 1.05.9 1.1zM77.87 65.14l-.76.07c-1.58.12-3.3.1-4.9-.1l-.72-.1c-1.06-.2-2.16-.5-3.27-.9-.66-.25-1.28-.5-1.85-.77-.34-.16-.58-.27-.7-.34-.5-.26-1.1-.07-1.35.42-.26.48-.07 1.1.42 1.35l.8.38c.6.28 1.3.56 2 .82 1.22.44 2.43.78 3.6 1 .28.03.55.08.82.1 1.75.24 3.6.25 5.3.13.4-.02.7-.05.86-.07.55-.06.94-.56.88-1.1-.06-.56-.56-.95-1.1-.9z" fill="#DA2B59"/></g><path d="M111.82 88.53c.1-.04.35-.1.73-.2.65-.17 1.4-.34 2.28-.5 1.77-.33 3.7-.57 5.8-.68 2.77-.15 5.65.27 8.42 1.06.84.25 1.6.5 2.28.76l.76.3c1.25.58 2.73.03 3.3-1.23.57-1.26.02-2.74-1.24-3.3-.76-.36-2.05-.84-3.74-1.33-3.26-.93-6.67-1.42-10.05-1.24-2.32.12-4.48.38-6.45.75-1.7.32-2.94.64-3.64.87-1.3.43-2.03 1.84-1.6 3.15.42 1.32 1.83 2.03 3.14 1.6zM88.85 83.77c-.7-.23-1.94-.55-3.64-.86-1.97-.36-4.13-.62-6.44-.74-3.4-.18-6.8.3-10.06 1.24-1.7.5-2.97.97-3.73 1.32-1.26.57-1.82 2.05-1.25 3.3.57 1.27 2.06 1.82 3.3 1.25l.78-.3c.67-.26 1.43-.52 2.27-.76 2.77-.78 5.65-1.2 8.43-1.05 2.1.1 4.03.35 5.8.68.87.16 1.63.33 2.28.5.37.1.62.16.72.2 1.32.42 2.73-.3 3.15-1.6.43-1.32-.3-2.73-1.6-3.16z" fill="#DA2B59"/></g></svg>