<svg width="200" height="200" viewBox="0 0 200 200" xmlns="http://www.w3.org/2000/svg"><title>avatar-ma</title><g fill="none" fill-rule="evenodd"><path d="M50.02 74.85c-.06 5.6.02 11.56.2 17.42.04 1.55.1 2.97.14 4.23l.05 1.18.03.42.28 5.87 5.78-.16 44.02-1.22 44.02 1.23 5.77.17.27-5.87c0-.08 0-.22.02-.42 0-.34.02-.74.04-1.18l.15-4.23c.16-5.86.24-11.83.18-17.42v-.62c0-.65 0-1.3.02-1.94.04-6.15-.32-11.43-1.22-15.74-.3-1.75-.66-3.24-1.1-4.46-.65-1.87-1.47-3.66-2.4-5.37-1.2-2.58-2.4-4.65-3.7-6.42-1.3-1.78-2.63-3.16-4.44-4.77.23.2-2.86-2.48-3.77-3.32-6.1-5.7-21.38-10.35-33.87-10.2-12.5.16-27.77 4.5-33.87 10.2-.9.85-4 3.54-3.77 3.33-1.8 1.6-3.13 3-4.44 4.78-1.3 1.78-2.5 3.85-3.7 6.43-.93 1.7-1.75 3.5-2.4 5.37-.44 1.22-.8 2.7-1.1 4.46-.9 4.3-1.26 9.6-1.22 15.73l.03 1.93v.62z" fill="#FF6224"/><path d="M55.43 98.04s-.57-11.93-.4-23.6c-.13-5.83.1-11.82 1.1-16.48.24-1.44.53-2.66.86-3.6.6-1.65 1.32-3.2 2.15-4.64 3.57-7.6 6.27-8.67 10.83-12.87 5.26-4.83 19.55-8.92 30.4-8.85 10.87.07 25.16 4.02 30.42 8.85 4.56 4.2 7.26 5.26 10.83 12.87.83 1.44 1.56 3 2.15 4.64.34.94.63 2.16.86 3.6 1 4.66 1.24 10.65 1.1 16.47.18 11.68-.4 23.6-.4 23.6l-44.95-1.22-44.97 1.24z" fill="#FFE0D3"/><path d="M52 133c-9.34 0-17-11.38-17-22 0-10.74 5.16-15 16-15 7.7 0 12.24 1.03 15.05 4.32 1.67 1.96 2.27 4.26 2.13 6.72-.04.78-.15 1.53-.32 2.38l-.2.97-.22.85c-.32 1.4-.44 2.1-.44 2.75 0 10.02-5.78 19-15 19z" fill="#FF6224"/><path d="M52 127c5.52 0 9-6.37 9-13s6.3-12-10-12c-7.3 0-10 1.48-10 9s5.48 16 11 16z" fill="#FFF"/><path d="M49.58 109.58c-.48.18-1.13.55-1.8 1.13-1.12 1-1.82 2.28-1.84 3.85 0 1.6.67 2.88 1.8 3.84.63.54 1.27.88 1.74 1.05.52.2 1.1-.08 1.28-.6.2-.52-.08-1.1-.6-1.28l-.32-.15c-.28-.15-.55-.33-.8-.55-.7-.6-1.1-1.35-1.1-2.3 0-.95.43-1.72 1.16-2.36.27-.22.56-.42.85-.58.17-.1.3-.15.35-.18.52-.2.77-.77.57-1.3-.2-.5-.78-.76-1.3-.56z" fill="#FF6224"/><path d="M51.35 109.14c-.2-.34-.58-.8-1.1-1.24-.94-.78-2.04-1.25-3.3-1.23-1.23 0-2.3.45-3.18 1.15-.54.43-.9.86-1.1 1.18-.3.47-.17 1.1.3 1.4.46.28 1.07.15 1.37-.32.1-.15.33-.42.67-.7.57-.44 1.22-.7 1.97-.7.74-.02 1.4.26 1.98.75.36.3.6.6.7.77.3.46.9.6 1.38.3.47-.28.6-.9.32-1.36zM149 133c9.34 0 17-11.38 17-22 0-10.74-5.16-15-16-15-7.7 0-12.24 1.03-15.05 4.32-1.67 1.96-2.27 4.26-2.13 6.72.04.78.15 1.53.32 2.38l.2.97.22.85c.32 1.4.44 2.1.44 2.75 0 10.02 5.78 19 15 19z" fill="#FF6224"/><path d="M149 127c-5.52 0-9-6.37-9-13s-6.3-12 10-12c7.3 0 10 1.48 10 9s-5.48 16-11 16z" fill="#FFF"/><path d="M151.42 109.58c.48.18 1.13.55 1.8 1.13 1.12 1 1.82 2.28 1.84 3.85 0 1.6-.67 2.88-1.8 3.84-.63.54-1.27.88-1.74 1.05-.52.2-1.1-.08-1.28-.6-.2-.52.08-1.1.6-1.28l.32-.15c.28-.15.55-.33.8-.55.7-.6 1.1-1.35 1.1-2.3 0-.95-.43-1.72-1.16-2.36-.27-.22-.56-.42-.85-.58-.17-.1-.3-.15-.35-.18-.52-.2-.77-.77-.57-1.3.2-.5.78-.76 1.3-.56z" fill="#FF6224"/><path d="M149.65 109.14c.2-.34.58-.8 1.1-1.24.94-.78 2.04-1.25 3.3-1.23 1.23 0 2.3.45 3.18 1.15.54.43.9.86 1.1 1.18.3.47.17 1.1-.3 1.4-.46.28-1.07.15-1.37-.32-.1-.15-.33-.42-.67-.7-.57-.44-1.22-.7-1.97-.7-.74-.02-1.4.26-1.98.75-.36.3-.6.6-.7.77-.3.46-.9.6-1.38.3-.47-.28-.6-.9-.32-1.36z" fill="#FF6224"/><g transform="translate(50 45)"><path d="M50.45 127c33.02 0 43.7-25.53 44.45-60.5S94.9 6 50.45 6 6 33.1 6 66.5 17.44 127 50.45 127z" fill="#FFF"/><path d="M94.57 76c-2.04 29.02-14.24 51.24-44.14 51.24-28.6 0-41-20.3-43.8-47.44 6.53 12.93 26.24 9.44 43.26 9.44 18.5 0 40.2 4.13 44.67-13.24z" fill-opacity=".2" fill="#FF6224"/><path d="M51 111c11.6 0 21-7.58 21-12s-9.4-4-21-4-21-.42-21 4 9.4 12 21 12z" fill="#FFF"/><path d="M94.5 66.5c.55-18.6 2.14-40.88-8.9-43.8C85.6 6 70.55 6 50.45 6 30.48 6 15.43 6 15.43 22.52 6 26.16 6 48.1 6 66.5 6 99.9 17.44 127 50.45 127c33.02 0 43.05-26.7 44.05-60.5zM0 66.5c0-4.54 0-6.6.04-9.2.13-10.02.66-17.32 1.94-23.4 1.25-5.96 3.52-12.15 7.66-14.93.42-8.44 5.92-13.96 13.93-16.6C29.7.34 35.34 0 50.45 0c15.2 0 20.86.35 27 2.4C85 4.9 90.42 9.93 91.33 18.7c5.3 3.27 6.96 7.97 8.3 14.7 1.17 5.82 1.45 12.26 1.37 23.04l-.05 3.4c-.04 3.4-.05 4.85-.05 6.64 0 18.8-3.44 34.5-10.78 46-8.5 13.32-21.9 20.5-39.67 20.5-17.77 0-31.17-7.18-39.66-20.5C3.43 101 0 85.3 0 66.5z" fill="#FF6224"/><rect fill="#FF6224" x="26" y="49" width="6" height="10" rx="3"/><rect fill="#FF6224" x="71" y="49" width="6" height="10" rx="3"/><path d="M41.6 85.65c.6.32 1.6.76 2.88 1.2 2.14.7 4.38 1.15 6.64 1.15 2.27 0 4.47-.44 6.56-1.17 1.25-.44 2.2-.9 2.8-1.22 1.44-.8 1.95-2.63 1.13-4.07-.8-1.45-2.63-1.96-4.07-1.14-.05 0-.2.1-.42.2-.4.2-.88.38-1.4.57-1.5.52-3.05.83-4.58.83-1.54 0-3.16-.3-4.73-.84-.57-.2-1.08-.4-1.52-.6l-.48-.2c-1.46-.8-3.28-.23-4.05 1.24-.78 1.46-.22 3.28 1.25 4.05zM35.58 102.64c.86.47 2.36 1.1 4.4 1.73 3.35 1.02 7.08 1.63 11.13 1.63 4.05 0 7.76-.6 11.04-1.64 2.02-.62 3.48-1.27 4.32-1.74 1.45-.8 1.97-2.64 1.16-4.08-.8-1.45-2.64-1.97-4.08-1.16l-.72.34c-.7.3-1.52.62-2.46.92-2.73.85-5.84 1.36-9.25 1.36-3.4 0-6.56-.5-9.37-1.37-.97-.3-1.82-.6-2.54-.92-.42-.16-.68-.3-.78-.34-1.46-.8-3.28-.24-4.06 1.22-.8 1.46-.24 3.28 1.22 4.06zM61.77 43.4c.1 0 .3-.05.65-.1.6-.12 1.3-.23 2.08-.33 2.3-.3 4.9-.47 7.74-.47 3.12 0 6.32.5 9.4 1.37 1.1.3 2.1.63 2.96.95.5.18.84.32 1 .4 1.76.76 3.83-.04 4.6-1.8.78-1.78-.02-3.85-1.8-4.63-1-.44-2.68-1.06-4.87-1.67-3.66-1.02-7.48-1.63-11.3-1.63-3.13 0-6.02.2-8.6.53-1.6.2-2.75.4-3.4.56-1.9.4-3.07 2.3-2.64 4.17.4 1.9 2.3 3.07 4.17 2.64zM42.77 36.6c-.65-.16-1.8-.37-3.4-.57-2.58-.33-5.47-.53-8.6-.53-3.82 0-7.64.6-11.3 1.63-2.2.6-3.88 1.23-4.88 1.66-1.78.77-2.58 2.84-1.8 4.6.77 1.78 2.84 2.58 4.6 1.8l1-.38c.87-.32 1.86-.65 2.95-.95 3.1-.86 6.3-1.37 9.4-1.37 2.84 0 5.44.18 7.75.47.8.1 1.5.2 2.08.32.34.05.56.1.65.1 1.88.44 3.76-.74 4.18-2.63.44-1.88-.74-3.76-2.63-4.18zM47.43 75.9l.3-.13c.27-.1.56-.22.87-.32.8-.26 1.57-.42 2.28-.45h.2c.74 0 1.56.17 2.38.45.3.1.56.2.8.3l.28.14c.5.24 1.1.05 1.35-.44.24-.5.05-1.1-.44-1.35-.28-.13-.75-.34-1.36-.55-1-.34-2.04-.55-3.03-.55h-.26c-.9.04-1.87.24-2.82.55-.63.2-1.12.4-1.4.55-.5.24-.72.84-.48 1.33.24.5.84.7 1.33.47zM20.97 69.4c.1 0 .3 0 .58.02 2.16.08 4.6 0 6.95-.32l.9-.15c1.35-.24 2.76-.6 4.18-1.06.92-.3 1.8-.62 2.6-.94.28-.1.53-.22.75-.3l.28-.13c.5-.23.73-.82.5-1.33-.23-.5-.82-.72-1.32-.5l-.94.4c-.76.3-1.6.6-2.47.9-1.34.42-2.66.76-3.92.98-.27.05-.55.1-.83.13-2.2.33-4.54.4-6.6.32l-.52-.02c-.55-.04-1.03.38-1.06.93-.04.56.38 1.03.93 1.06zM81.9 67.4c-.1 0-.27 0-.52.02-2.06.07-4.4 0-6.6-.3l-.83-.14c-1.26-.22-2.58-.56-3.92-1-.88-.27-1.7-.57-2.47-.88-.45-.18-.77-.32-.94-.4-.5-.22-1.1 0-1.32.5-.23.5 0 1.1.5 1.33l.27.12c.22.1.47.2.75.3.8.33 1.68.65 2.6.94 1.42.45 2.83.8 4.2 1.05.28.06.57.1.88.15 2.34.33 4.8.4 6.95.32.27 0 .47-.02.58-.03.55-.04.97-.5.93-1.07-.03-.55-.5-.97-1.06-.93zM45.36 117.93l.4-.13c.36-.1.76-.22 1.2-.33 1.3-.3 2.7-.47 4.16-.47 1.44 0 2.8.18 4 .47.44.1.8.2 1.13.32.2.05.3.1.36.12.52.22 1.1-.02 1.32-.53.22-.52-.02-1.1-.53-1.32-.36-.15-.97-.35-1.8-.55-1.36-.33-2.87-.53-4.48-.53-1.6 0-3.16.2-4.6.53-.86.2-1.5.4-1.88.54-.5.2-.77.77-.57 1.3.2.5.77.76 1.3.56z" fill="#FF6224"/></g><path d="M77.25 46.12s21.2 3.5 36.94 2.5c15.73-.97 19.44-5.55 19.44-5.55l-10.8-8.18-38.67-.75-11.48 7.3 4.55 4.67z" fill="#FFE0D3"/><path d="M77.8 52.57l.56.1 1.56.25c1.67.26 3.53.5 5.52.75 5.3.64 10.6 1.04 15.56 1.1 5.44.04 10.2-.33 14.08-1.22 2.94-.68 5.57-1.44 7.9-2.3 3.36-1.2 5.98-2.53 7.97-3.9 1.3-.88 2.13-1.64 2.57-2.2 1.04-1.28.85-3.17-.44-4.2-1.3-1.05-3.18-.85-4.22.43.03-.03-.02 0-.14.13-.28.26-.66.57-1.16.9-1.56 1.08-3.73 2.17-6.62 3.22-2.1.76-4.5 1.46-7.2 2.08-3.36.77-7.67 1.1-12.68 1.06-4.72-.05-9.8-.44-14.9-1.05-1.93-.22-3.72-.46-5.33-.7l-1.48-.25-.5-.08c-1.64-.3-3.2.8-3.5 2.42-.28 1.62.8 3.18 2.44 3.47z" fill="#FF6224"/><path d="M100 43.7c6.8 1.36 20.28-1.9 24.6-5.9.4-.4.42-1.02.04-1.43-.37-.4-1-.42-1.4-.05-3.83 3.55-16.65 6.66-22.85 5.4-.56-.1-1.08.25-1.2.8-.1.53.25 1.06.8 1.17zM102.86 37.14c6.63.54 10.16-.32 15.47-3.43.47-.27.63-.88.35-1.36-.27-.47-.9-.63-1.36-.36-4.97 2.9-8.1 3.67-14.3 3.16-.55-.04-1.03.37-1.08.92-.04.55.37 1.03.92 1.08z" fill="#FF6224"/></g></svg>