<?xml version="1.0" encoding="UTF-8"?>
<svg width="200px" height="200px" viewBox="0 0 200 200" version="1.1" xmlns="http://www.w3.org/2000/svg" xmlns:xlink="http://www.w3.org/1999/xlink">
    <!-- Generator: Sketch 43.2 (39069) - http://www.bohemiancoding.com/sketch -->
    <title>Artboard</title>
    <desc>Created with Sketch.</desc>
    <defs></defs>
    <g id="Page-1" stroke="none" stroke-width="1" fill="none" fill-rule="evenodd">
        <g id="Artboard" fill-rule="nonzero" fill="#000000">
            <path d="M184.851508,0 L14.7480278,0 C6.60278422,0 0.000928074246,6.40046404 0.000928074246,14.300232 L0.000928074246,185.284455 C0.000928074246,193.184687 6.60510441,199.590719 14.7480278,199.590719 L184.851508,199.590719 C192.994896,199.590719 199.589327,193.18051 199.589327,185.284455 L199.589327,14.300232 C199.589327,6.40278422 192.994896,0 184.851508,0 Z M60.5104408,167.070998 L30.3540603,167.070998 L30.3540603,76.9582367 L60.5104408,76.9582367 L60.5104408,167.070998 Z M45.4352668,64.6473318 L45.2324826,64.6473318 C35.1197216,64.6473318 28.5642691,57.7313225 28.5642691,49.0728538 C28.5642691,40.2399072 35.312297,33.5113689 45.625522,33.5113689 C55.9396752,33.5113689 62.2839907,40.238051 62.4844548,49.0728538 C62.4844548,57.7331787 55.9419954,64.6473318 45.4352668,64.6473318 Z M169.215313,167.070998 L139.068677,167.070998 L139.068677,118.857541 C139.068677,106.742923 134.700696,98.4765661 123.798608,98.4765661 C115.458469,98.4765661 110.507657,104.053364 108.333643,109.437587 C107.528074,111.360557 107.328538,114.050116 107.328538,116.735963 L107.328538,167.069142 L77.187471,167.069142 C77.187471,167.069142 77.5819026,85.4083527 77.187471,76.9568445 L107.333179,76.9568445 L107.333179,89.7322506 C111.335035,83.5935035 118.486311,74.8366589 134.495128,74.8366589 C154.337355,74.8366589 169.215313,87.7085847 169.215313,115.4 L169.215313,167.070998 Z M107.138283,90.0185615 C107.189791,89.9341067 107.261717,89.8324826 107.333179,89.7336427 L107.333179,90.0185615 L107.138283,90.0185615 Z" id="LinkedIn__x28_alt_x29_"></path>
        </g>
    </g>
</svg>